<?xml version="1.0" standalone="no"?>
<!DOCTYPE svg PUBLIC "-//W3C//DTD SVG 20010904//EN"
 "http://www.w3.org/TR/2001/REC-SVG-20010904/DTD/svg10.dtd">
<svg version="1.0" xmlns="http://www.w3.org/2000/svg"
 width="512.000000pt" height="512.000000pt" viewBox="0 0 512.000000 512.000000"
 preserveAspectRatio="xMidYMid meet">
<metadata>
Created by potrace 1.11, written by Peter Selinger 2001-2013
</metadata>
<g transform="translate(0.000000,512.000000) scale(0.100000,-0.100000)"
fill="#000000" stroke="none">
<path d="M1697 5007 c-21 -20 -38 -46 -42 -67 -6 -36 -1 -560 6 -594 3 -16 -8
-21 -86 -37 -49 -10 -118 -29 -152 -43 l-63 -25 0 30 c0 31 -246 469 -292 521
-69 76 -198 21 -198 -85 0 -41 242 -471 298 -529 20 -21 31 -38 25 -38 -15 0
-140 -117 -184 -172 l-37 -48 -19 24 c-15 21 -353 225 -475 287 -92 47 -188
-3 -188 -98 0 -61 28 -83 270 -223 228 -132 294 -165 310 -155 5 3 -2 -23 -16
-57 -14 -35 -33 -103 -43 -153 -16 -78 -21 -89 -37 -86 -33 8 -537 12 -582 6
-120 -18 -152 -165 -48 -220 27 -14 69 -16 326 -13 162 2 303 7 313 12 14 7
17 3 17 -24 0 -40 34 -174 59 -233 l19 -45 -32 -5 c-39 -6 -492 -266 -525
-301 -27 -29 -37 -92 -19 -126 18 -33 75 -70 108 -70 29 0 486 256 531 297 15
13 31 39 36 56 8 28 29 44 160 120 l151 88 -40 78 c-166 328 -6 710 349 832
214 73 482 -6 628 -186 22 -28 47 -61 56 -74 l15 -24 143 93 c123 80 145 92
155 79 18 -25 52 -39 93 -39 31 0 83 26 273 136 129 74 243 143 254 152 77 69
27 202 -76 202 -35 0 -78 -21 -277 -136 -130 -74 -248 -148 -263 -164 l-27
-29 -46 57 c-25 30 -72 78 -103 105 -31 27 -61 52 -65 56 -4 4 7 24 25 43 18
20 92 138 163 264 114 199 130 233 129 271 -2 92 -107 144 -179 88 -39 -29
-304 -480 -312 -530 l-5 -32 -72 28 c-39 15 -108 33 -154 40 -68 11 -81 16
-75 29 5 8 8 152 8 320 0 289 -1 306 -20 332 -42 56 -117 63 -168 15z"/>
<path d="M3230 3735 c-8 -2 -49 -9 -90 -15 -147 -24 -303 -86 -445 -178 -89
-57 -278 -248 -329 -333 l-40 -64 -150 0 c-123 0 -168 -5 -240 -23 -340 -85
-616 -347 -710 -674 l-24 -83 -43 -3 c-439 -25 -760 -358 -760 -787 0 -364
217 -646 586 -764 45 -14 219 -16 1630 -19 1143 -2 1602 0 1660 8 338 48 631
273 763 585 59 139 76 231 75 395 0 160 -15 233 -74 375 -83 199 -251 382
-441 480 l-76 39 -7 53 c-21 167 -114 393 -223 539 -169 227 -418 386 -702
449 -68 15 -323 29 -360 20z m230 -395 c317 -50 572 -279 650 -584 22 -88 28
-188 16 -293 l-8 -71 89 -26 c135 -41 173 -56 237 -94 122 -73 219 -201 262
-347 25 -84 23 -238 -5 -325 -63 -200 -241 -362 -446 -405 -60 -13 -292 -15
-1590 -15 -1654 0 -1583 -2 -1680 55 -64 37 -125 105 -159 175 -28 59 -31 74
-31 165 0 91 3 106 31 165 59 126 183 214 316 227 61 5 86 1 263 -47 107 -30
196 -52 198 -49 3 2 -2 54 -9 114 -22 184 -18 277 14 371 64 184 198 313 387
375 55 18 92 23 170 23 89 -1 115 -6 234 -43 73 -24 137 -39 142 -34 4 4 28
58 54 118 25 61 63 139 85 175 159 267 477 417 780 370z"/>
</g>
</svg>
